# xmcd
#
# Track frame offsets:
#	150
#	16299
#	32289
#	44469
#	57459
#	70748
#	84663
#	99093
#	113949
#	129567
#	144689
#	160777
#
# Disc length: 2334 seconds
#
# Revision: 0
# Processed by: cddbd v1.5.2PL0 Copyright (c) Steve Scherf et al.
# Submitted via: dBpowerAMP V4.0
#
DISCID=99091c0c
DTITLE=Various Artist - #1 Mega Hits Of Country
DYEAR=2007
DGENRE=Country
TTITLE0=Randy Travis - Forever And Ever, Amen
TTITLE1=Johnny Lee - Lookin' For Love
TTITLE2=Holly Dunn - Are You Ever Gonna Love Me
TTITLE3=Dwight Yoakam and Buck Owens - Streets Of Bakersfield
TTITLE4=Conway Twitty - Slow Hand
TTITLE5=John Anderson - Swingin'
TTITLE6=Eddie Rabbit - I Love A Rainy Night
TTITLE7=Highway 101 - Somewhere Tonight
TTITLE8=Michael Martin Murphey - A Long Line Of Love
TTITLE9=Gary Morris - Baby Bye Bye
TTITLE10=The Nitty Gritty Dirt Band - Modern Day Romance
TTITLE11=T.G. Sheppard - Do You Wanna Go To Heaven
EXTD=
EXTT0=
EXTT1=
EXTT2=
EXTT3=
EXTT4=
EXTT5=
EXTT6=
EXTT7=
EXTT8=
EXTT9=
EXTT10=
EXTT11=
PLAYORDER=
